<mxfile host="app.diagrams.net" modified="2024-08-09T07:05:46.580Z" agent="Mozilla/5.0 (Macintosh; Intel Mac OS X 10_15_7) AppleWebKit/605.1.15 (KHTML, like Gecko) Version/17.1 Safari/605.1.15" version="24.7.1" etag="d6xPCKWXJF48b7G9R8q4" type="github">
  <diagram name="第 1 页" id="Mkm1_8NAjXaZmP6KYhzX">
    <mxGraphModel>
      <root>
        <mxCell id="0" />
        <mxCell id="1" parent="0" />
      </root>
    </mxGraphModel>
  </diagram>
</mxfile>
